<svg width="223" height="100" viewBox="0 0 223 100" fill="none" xmlns="http://www.w3.org/2000/svg">
<path d="M0.677242 76.3521L0.202515 1.27973L39.2132 0.995361L39.3358 13.302L14.3733 13.4956L14.475 33.6183L38.1786 33.4436L38.253 45.1056L14.5493 45.2803L14.7256 76.2613L0.677242 76.3521Z" fill="#F6F6F6"/>
<path d="M64.1577 1.01681V76.2822H50.8683V1.01681H64.1577Z" fill="#F6F6F6"/>
<path d="M72.6095 13.6925L72.4636 0.995367L115.517 0.995361L115.552 13.3398L100.193 13.4713L100.572 76.2822H86.5836L86.3073 13.561L72.6095 13.6925Z" fill="#F6F6F6"/>
<path d="M124.791 76.2822L153.414 13.4925L153.411 13.0351L122.985 13.2425V1.01681H169.608V12.2682L139.197 76.2822H124.791Z" fill="#F6F6F6"/>
<path d="M177.948 76.2822L206.603 13.4925L206.6 13.0351L176.174 13.2425V1.01681L222.717 1.01681L222.798 12.2682L192.483 76.2822H177.948Z" fill="#F6F6F6"/>
<path d="M59.4004 98.6776V83.115H61.9565V98.6776H59.4004ZM59.4004 95.6983C58.6907 95.6983 58.0432 95.5833 57.4578 95.3531C56.8724 95.119 56.3672 94.79 55.9422 94.3661C55.5172 93.9382 55.1884 93.4315 54.9559 92.8462C54.7233 92.2568 54.607 91.6088 54.607 90.9024C54.607 90.1878 54.7233 89.5378 54.9559 88.9525C55.1884 88.3631 55.5172 87.8564 55.9422 87.4325C56.3672 87.0046 56.8724 86.6756 57.4578 86.4455C58.0432 86.2113 58.6907 86.0943 59.4004 86.0943H59.8755V95.6983H59.4004ZM59.4004 93.6879H59.6831V88.1047H59.4004C59.0556 88.1047 58.7489 88.1774 58.4802 88.3227C58.2116 88.468 57.9851 88.6679 57.8006 88.9222C57.6162 89.1725 57.4759 89.4672 57.3796 89.8063C57.2874 90.1454 57.2413 90.5108 57.2413 90.9024C57.2413 91.4191 57.3255 91.8894 57.4939 92.3133C57.6623 92.7331 57.9089 93.0682 58.2337 93.3185C58.5584 93.5648 58.9473 93.6879 59.4004 93.6879ZM61.9565 95.6983H61.4814V86.0943H61.9565C62.6662 86.0943 63.3137 86.2113 63.8991 86.4455C64.4845 86.6756 64.9897 87.0046 65.4147 87.4325C65.8397 87.8564 66.1685 88.3631 66.401 88.9525C66.6336 89.5378 66.7499 90.1878 66.7499 90.9024C66.7499 91.6088 66.6336 92.2568 66.401 92.8462C66.1685 93.4315 65.8397 93.9382 65.4147 94.3661C64.9897 94.79 64.4845 95.119 63.8991 95.3531C63.3137 95.5833 62.6662 95.6983 61.9565 95.6983ZM61.9565 93.6879C62.3013 93.6879 62.608 93.6172 62.8767 93.4759C63.1453 93.3306 63.3718 93.1308 63.5563 92.8764C63.7407 92.6221 63.8811 92.3274 63.9773 91.9923C64.0735 91.6532 64.1216 91.2899 64.1216 90.9024C64.1216 90.3816 64.0354 89.9113 63.863 89.4914C63.6946 89.0675 63.45 88.7304 63.1293 88.4801C62.8085 88.2299 62.4176 88.1047 61.9565 88.1047H61.6738V93.6879H61.9565Z" fill="#F6F6F6"/>
<path d="M68.4263 95.5167V86.2154H70.9884V95.5167H68.4263ZM69.7134 85.0164C69.3325 85.0164 69.0057 84.8892 68.7331 84.6349C68.4644 84.3765 68.3301 84.0677 68.3301 83.7084C68.3301 83.3532 68.4644 83.0484 68.7331 82.794C69.0057 82.5357 69.3325 82.4065 69.7134 82.4065C70.0943 82.4065 70.4191 82.5357 70.6877 82.794C70.9604 83.0484 71.0967 83.3532 71.0967 83.7084C71.0967 84.0677 70.9604 84.3765 70.6877 84.6349C70.4191 84.8892 70.0943 85.0164 69.7134 85.0164Z" fill="#F6F6F6"/>
<path d="M72.5596 88.244V86.2154H80.9315V88.244H77.9544V95.5167H75.5126V88.244H72.5596Z" fill="#F6F6F6"/>
<path d="M88.9139 89.8366V91.8652H84.0905V89.8366H88.9139ZM84.9325 86.2154V95.5167H82.4847V86.2154H84.9325ZM90.5198 86.2154V95.5167H88.09V86.2154H90.5198Z" fill="#F6F6F6"/>
<path d="M96.7175 95.6983C95.7672 95.6983 94.9493 95.5045 94.2636 95.117C93.582 94.7254 93.0568 94.1723 92.6879 93.4578C92.319 92.7392 92.1346 91.8894 92.1346 90.9084C92.1346 89.9516 92.319 89.1119 92.6879 88.3893C93.0568 87.6667 93.576 87.1035 94.2456 86.6998C94.9192 86.2961 95.7091 86.0943 96.6152 86.0943C97.2247 86.0943 97.792 86.1932 98.3173 86.391C98.8465 86.5848 99.3076 86.8775 99.7005 87.2691C100.097 87.6606 100.406 88.1532 100.627 88.7466C100.847 89.336 100.958 90.0263 100.958 90.8176V91.5261H93.157V89.9274H98.5458C98.5458 89.556 98.4656 89.227 98.3052 88.9404C98.1449 88.6537 97.9223 88.4297 97.6376 88.2682C97.357 88.1027 97.0302 88.0199 96.6573 88.0199C96.2684 88.0199 95.9236 88.1108 95.6229 88.2924C95.3262 88.4701 95.0936 88.7103 94.9252 89.013C94.7568 89.3118 94.6706 89.6448 94.6666 90.0122V91.5321C94.6666 91.9923 94.7508 92.39 94.9192 92.7251C95.0916 93.0601 95.3342 93.3185 95.6469 93.5002C95.9597 93.6818 96.3305 93.7727 96.7596 93.7727C97.0442 93.7727 97.3049 93.7323 97.5414 93.6516C97.778 93.5708 97.9805 93.4497 98.1489 93.2882C98.3173 93.1267 98.4456 92.9289 98.5338 92.6948L100.903 92.8522C100.783 93.4255 100.537 93.9261 100.164 94.354C99.7948 94.7779 99.3176 95.1089 98.7322 95.3471C98.1509 95.5812 97.4793 95.6983 96.7175 95.6983Z" fill="#F6F6F6"/>
<path d="M106.803 95.6983C105.857 95.6983 105.043 95.4965 104.362 95.0928C103.684 94.685 103.163 94.1199 102.798 93.3972C102.437 92.6746 102.257 91.843 102.257 90.9024C102.257 89.9496 102.439 89.114 102.804 88.3954C103.173 87.6728 103.696 87.1096 104.374 86.7059C105.051 86.2981 105.857 86.0943 106.791 86.0943C107.597 86.0943 108.303 86.2416 108.908 86.5363C109.514 86.831 109.993 87.2448 110.346 87.7777C110.699 88.3106 110.893 88.9363 110.929 89.6549H108.511C108.443 89.1907 108.263 88.8172 107.97 88.5347C107.681 88.248 107.303 88.1047 106.833 88.1047C106.437 88.1047 106.09 88.2137 105.793 88.4317C105.5 88.6457 105.272 88.9585 105.107 89.3703C104.943 89.7821 104.861 90.2807 104.861 90.866C104.861 91.4595 104.941 91.9641 105.101 92.3799C105.266 92.7957 105.496 93.1126 105.793 93.3306C106.09 93.5486 106.437 93.6576 106.833 93.6576C107.126 93.6576 107.389 93.5971 107.621 93.4759C107.858 93.3548 108.052 93.1792 108.205 92.9491C108.361 92.715 108.463 92.4344 108.511 92.1074H110.929C110.889 92.8179 110.697 93.4436 110.352 93.9846C110.011 94.5215 109.54 94.9414 108.938 95.2442C108.337 95.5469 107.625 95.6983 106.803 95.6983Z" fill="#F6F6F6"/>
<path d="M120.663 95.6983C119.717 95.6983 118.903 95.4965 118.221 95.0928C117.544 94.685 117.023 94.1199 116.658 93.3972C116.297 92.6746 116.116 91.843 116.116 90.9024C116.116 89.9496 116.299 89.114 116.664 88.3954C117.033 87.6728 117.556 87.1096 118.234 86.7059C118.911 86.2981 119.717 86.0943 120.651 86.0943C121.457 86.0943 122.163 86.2416 122.768 86.5363C123.374 86.831 123.853 87.2448 124.206 87.7777C124.559 88.3106 124.753 88.9363 124.789 89.6549H122.371C122.303 89.1907 122.123 88.8172 121.83 88.5347C121.541 88.248 121.162 88.1047 120.693 88.1047C120.296 88.1047 119.95 88.2137 119.653 88.4317C119.36 88.6457 119.132 88.9585 118.967 89.3703C118.803 89.7821 118.721 90.2807 118.721 90.866C118.721 91.4595 118.801 91.9641 118.961 92.3799C119.126 92.7957 119.356 93.1126 119.653 93.3306C119.95 93.5486 120.296 93.6576 120.693 93.6576C120.986 93.6576 121.249 93.5971 121.481 93.4759C121.718 93.3548 121.912 93.1792 122.065 92.9491C122.221 92.715 122.323 92.4344 122.371 92.1074H124.789C124.749 92.8179 124.557 93.4436 124.212 93.9846C123.871 94.5215 123.4 94.9414 122.798 95.2442C122.197 95.5469 121.485 95.6983 120.663 95.6983Z" fill="#F6F6F6"/>
<path d="M125.799 88.244V86.2154H134.171V88.244H131.194V95.5167H128.752V88.244H125.799Z" fill="#F6F6F6"/>
<path d="M137.306 99.0046C136.982 99.0046 136.677 98.9784 136.392 98.9259C136.111 98.8775 135.879 98.8149 135.694 98.7382L136.272 96.8125C136.573 96.9054 136.843 96.9558 137.084 96.9639C137.328 96.972 137.539 96.9155 137.715 96.7944C137.896 96.6733 138.042 96.4674 138.154 96.1767L138.305 95.7831L134.991 86.2154H137.685L139.598 93.046H139.694L141.625 86.2154H144.337L140.746 96.5219C140.574 97.0225 140.339 97.4585 140.043 97.8298C139.75 98.2053 139.379 98.4939 138.93 98.6958C138.481 98.9017 137.94 99.0046 137.306 99.0046Z" fill="#F6F6F6"/>
<path d="M144.182 98.2416V93.4699H144.892C145.096 93.3407 145.261 93.1348 145.385 92.8522C145.513 92.5696 145.617 92.2366 145.698 91.8531C145.782 91.4696 145.846 91.0558 145.89 90.6117C145.938 90.1636 145.98 89.7114 146.016 89.2553L146.257 86.2154H153.342V93.4699H154.773V98.2416H152.331V95.5167H146.684V98.2416H144.182ZM147.442 93.4699H150.924V88.2016H148.434L148.338 89.2553C148.27 90.2484 148.172 91.0921 148.043 91.7865C147.915 92.4768 147.714 93.0379 147.442 93.4699Z" fill="#F6F6F6"/>
<path d="M156.266 95.5167V86.2154H158.828V95.5167H156.266ZM157.553 85.0164C157.172 85.0164 156.846 84.8892 156.573 84.6349C156.304 84.3765 156.17 84.0677 156.17 83.7084C156.17 83.3532 156.304 83.0484 156.573 82.794C156.846 82.5357 157.172 82.4065 157.553 82.4065C157.934 82.4065 158.259 82.5357 158.528 82.794C158.8 83.0484 158.937 83.3532 158.937 83.7084C158.937 84.0677 158.8 84.3765 158.528 84.6349C158.259 84.8892 157.934 85.0164 157.553 85.0164Z" fill="#F6F6F6"/>
<path d="M166.294 95.5167V88.2379H164.561C164.092 88.2379 163.735 88.3469 163.491 88.5649C163.246 88.7829 163.126 89.0413 163.13 89.34C163.126 89.6428 163.242 89.8992 163.479 90.1091C163.719 90.315 164.072 90.4179 164.537 90.4179H167.148V92.1619H164.537C163.748 92.1619 163.064 92.0408 162.487 91.7986C161.909 91.5564 161.464 91.2193 161.151 90.7873C160.839 90.3513 160.684 89.8447 160.688 89.2674C160.684 88.6618 160.839 88.131 161.151 87.6748C161.464 87.2146 161.911 86.8573 162.493 86.6029C163.078 86.3446 163.768 86.2154 164.561 86.2154H168.681V95.5167H166.294ZM160.424 95.5167L162.992 90.6722H165.44L162.877 95.5167H160.424Z" fill="#F6F6F6"/>
</svg>
