<svg width="86" height="38" viewBox="0 0 86 38" fill="none" xmlns="http://www.w3.org/2000/svg">
<path d="M0.183412 29.2172L0 0.110256L15.0719 0L15.1192 4.77152L5.47492 4.84657L5.51419 12.6485L14.6721 12.5808L14.7009 17.1023L5.54292 17.1701L5.611 29.182L0.183412 29.2172Z" fill="#141414"/>
<path d="M24.7092 0.00831735V29.1901H19.5748V0.00831735H24.7092Z" fill="#141414"/>
<path d="M27.9745 4.92293L27.9182 2.00994e-06L44.5518 0L44.5656 4.78616L38.6316 4.83714L38.778 29.1901H33.3735L33.2667 4.87194L27.9745 4.92293Z" fill="#141414"/>
<path d="M48.1348 29.1901L59.1935 4.84535L59.1924 4.66804L47.4372 4.74845V0.00831735H65.4502V4.3707L53.7007 29.1901H48.1348Z" fill="#141414"/>
<path d="M68.6723 29.1901L79.7433 4.84535L79.7422 4.66804L67.987 4.74845V0.00831735L85.9687 0.00831681L86 4.3707L74.288 29.1901H68.6723Z" fill="#141414"/>
<path d="M22.8712 37.8732V31.8393H23.8587V37.8732H22.8712ZM22.8712 36.7181C22.597 36.7181 22.3468 36.6735 22.1207 36.5843C21.8945 36.4935 21.6993 36.3659 21.5351 36.2016C21.3709 36.0356 21.2439 35.8392 21.154 35.6123C21.0642 35.3837 21.0193 35.1325 21.0193 34.8586C21.0193 34.5816 21.0642 34.3296 21.154 34.1026C21.2439 33.8741 21.3709 33.6776 21.5351 33.5133C21.6993 33.3474 21.8945 33.2198 22.1207 33.1306C22.3468 33.0398 22.597 32.9944 22.8712 32.9944H23.0548V36.7181H22.8712ZM22.8712 35.9386H22.9804V33.7739H22.8712C22.738 33.7739 22.6195 33.8021 22.5157 33.8584C22.4119 33.9148 22.3244 33.9923 22.2531 34.0909C22.1819 34.1879 22.1276 34.3022 22.0905 34.4336C22.0548 34.5651 22.037 34.7068 22.037 34.8586C22.037 35.0589 22.0696 35.2413 22.1346 35.4056C22.1997 35.5684 22.295 35.6983 22.4204 35.7954C22.5459 35.8909 22.6962 35.9386 22.8712 35.9386ZM23.8587 36.7181H23.6752V32.9944H23.8587C24.1329 32.9944 24.3831 33.0398 24.6093 33.1306C24.8354 33.2198 25.0306 33.3474 25.1948 33.5133C25.359 33.6776 25.4861 33.8741 25.5759 34.1026C25.6658 34.3296 25.7107 34.5816 25.7107 34.8586C25.7107 35.1325 25.6658 35.3837 25.5759 35.6123C25.4861 35.8392 25.359 36.0356 25.1948 36.2016C25.0306 36.3659 24.8354 36.4935 24.6093 36.5843C24.3831 36.6735 24.1329 36.7181 23.8587 36.7181ZM23.8587 35.9386C23.992 35.9386 24.1105 35.9112 24.2143 35.8564C24.3181 35.8001 24.4056 35.7226 24.4768 35.624C24.5481 35.5254 24.6023 35.4111 24.6395 35.2812C24.6767 35.1497 24.6953 35.0089 24.6953 34.8586C24.6953 34.6567 24.6619 34.4743 24.5953 34.3116C24.5303 34.1472 24.4358 34.0165 24.3119 33.9195C24.1879 33.8224 24.0369 33.7739 23.8587 33.7739H23.7495V35.9386H23.8587Z" fill="#141414"/>
<path d="M26.3584 36.6477V33.0414H27.3482V36.6477H26.3584ZM26.8556 32.5765C26.7085 32.5765 26.5822 32.5272 26.4769 32.4286C26.3731 32.3284 26.3212 32.2087 26.3212 32.0694C26.3212 31.9316 26.3731 31.8135 26.4769 31.7149C26.5822 31.6147 26.7085 31.5646 26.8556 31.5646C27.0028 31.5646 27.1283 31.6147 27.2321 31.7149C27.3374 31.8135 27.3901 31.9316 27.3901 32.0694C27.3901 32.2087 27.3374 32.3284 27.2321 32.4286C27.1283 32.5272 27.0028 32.5765 26.8556 32.5765Z" fill="#141414"/>
<path d="M27.9553 33.8279V33.0414H31.1898V33.8279H30.0396V36.6477H29.0962V33.8279H27.9553Z" fill="#141414"/>
<path d="M34.2738 34.4454V35.2319H32.4103V34.4454H34.2738ZM32.7356 33.0414V36.6477H31.7899V33.0414H32.7356ZM34.8942 33.0414V36.6477H33.9555V33.0414H34.8942Z" fill="#141414"/>
<path d="M37.2887 36.7181C36.9216 36.7181 36.6056 36.643 36.3407 36.4927C36.0773 36.3409 35.8744 36.1264 35.7319 35.8494C35.5894 35.5708 35.5181 35.2413 35.5181 34.861C35.5181 34.49 35.5894 34.1644 35.7319 33.8843C35.8744 33.6041 36.075 33.3857 36.3337 33.2292C36.5939 33.0727 36.8991 32.9944 37.2492 32.9944C37.4847 32.9944 37.7039 33.0328 37.9068 33.1095C38.1113 33.1846 38.2894 33.2981 38.4412 33.4499C38.5946 33.6017 38.7139 33.7927 38.7991 34.0228C38.8843 34.2513 38.9269 34.5189 38.9269 34.8257V35.1004H35.9131V34.4806H37.9951C37.9951 34.3366 37.9641 34.209 37.9021 34.0979C37.8402 33.9868 37.7542 33.8999 37.6442 33.8373C37.5358 33.7731 37.4095 33.741 37.2655 33.741C37.1152 33.741 36.982 33.7763 36.8658 33.8467C36.7512 33.9156 36.6613 34.0087 36.5963 34.1261C36.5312 34.2419 36.4979 34.371 36.4964 34.5135V35.1028C36.4964 35.2812 36.5289 35.4354 36.5939 35.5653C36.6606 35.6952 36.7543 35.7954 36.8751 35.8658C36.9959 35.9363 37.1392 35.9715 37.305 35.9715C37.415 35.9715 37.5157 35.9558 37.607 35.9245C37.6984 35.8932 37.7767 35.8463 37.8417 35.7836C37.9068 35.721 37.9564 35.6443 37.9904 35.5536L38.906 35.6146C38.8595 35.8369 38.7642 36.031 38.6201 36.1969C38.4776 36.3612 38.2933 36.4896 38.0671 36.5819C37.8425 36.6727 37.583 36.7181 37.2887 36.7181Z" fill="#141414"/>
<path d="M41.1854 36.7181C40.8198 36.7181 40.5054 36.6398 40.242 36.4833C39.9802 36.3252 39.7789 36.1061 39.6379 35.8259C39.4985 35.5457 39.4288 35.2233 39.4288 34.8586C39.4288 34.4892 39.4993 34.1652 39.6402 33.8866C39.7827 33.6064 39.9849 33.3881 40.2467 33.2316C40.5085 33.0735 40.8198 32.9944 41.1808 32.9944C41.4921 32.9944 41.7648 33.0516 41.9987 33.1658C42.2326 33.2801 42.4177 33.4405 42.554 33.6471C42.6904 33.8537 42.7655 34.0963 42.7794 34.375H41.8453C41.819 34.195 41.7493 34.0502 41.6362 33.9406C41.5247 33.8295 41.3783 33.7739 41.197 33.7739C41.0437 33.7739 40.9097 33.8162 40.7951 33.9007C40.682 33.9836 40.5937 34.1049 40.5302 34.2646C40.4667 34.4243 40.4349 34.6176 40.4349 34.8445C40.4349 35.0746 40.4659 35.2703 40.5278 35.4315C40.5914 35.5927 40.6804 35.7156 40.7951 35.8001C40.9097 35.8846 41.0437 35.9269 41.197 35.9269C41.3101 35.9269 41.4116 35.9034 41.5014 35.8564C41.5928 35.8095 41.668 35.7414 41.7268 35.6522C41.7872 35.5614 41.8267 35.4526 41.8453 35.3258H42.7794C42.7639 35.6013 42.6896 35.8439 42.5564 36.0536C42.4247 36.2618 42.2427 36.4246 42.0103 36.542C41.778 36.6594 41.503 36.7181 41.1854 36.7181Z" fill="#141414"/>
<path d="M46.5402 36.7181C46.1746 36.7181 45.8602 36.6398 45.5968 36.4833C45.335 36.3252 45.1336 36.1061 44.9927 35.8259C44.8533 35.5457 44.7836 35.2233 44.7836 34.8586C44.7836 34.4892 44.854 34.1652 44.995 33.8866C45.1375 33.6064 45.3397 33.3881 45.6015 33.2316C45.8633 33.0735 46.1746 32.9944 46.5356 32.9944C46.8469 32.9944 47.1196 33.0516 47.3535 33.1658C47.5874 33.2801 47.7725 33.4405 47.9088 33.6471C48.0452 33.8537 48.1203 34.0963 48.1342 34.375H47.2001C47.1738 34.195 47.1041 34.0502 46.991 33.9406C46.8795 33.8295 46.7331 33.7739 46.5518 33.7739C46.3985 33.7739 46.2645 33.8162 46.1498 33.9007C46.0368 33.9836 45.9485 34.1049 45.885 34.2646C45.8214 34.4243 45.7897 34.6176 45.7897 34.8445C45.7897 35.0746 45.8207 35.2703 45.8826 35.4315C45.9461 35.5927 46.0352 35.7156 46.1498 35.8001C46.2645 35.8846 46.3985 35.9269 46.5518 35.9269C46.6649 35.9269 46.7664 35.9034 46.8562 35.8564C46.9476 35.8095 47.0228 35.7414 47.0816 35.6522C47.142 35.5614 47.1815 35.4526 47.2001 35.3258H48.1342C48.1187 35.6013 48.0444 35.8439 47.9112 36.0536C47.7795 36.2618 47.5975 36.4246 47.3651 36.542C47.1327 36.6594 46.8578 36.7181 46.5402 36.7181Z" fill="#141414"/>
<path d="M48.5246 33.8279V33.0414H51.7591V33.8279H50.6089V36.6477H49.6655V33.8279H48.5246Z" fill="#141414"/>
<path d="M52.9703 38C52.8448 38 52.7271 37.9898 52.6171 37.9695C52.5086 37.9507 52.4188 37.9264 52.3475 37.8967L52.5706 37.1501C52.6868 37.1861 52.7913 37.2057 52.8843 37.2088C52.9788 37.2119 53.0601 37.19 53.1283 37.143C53.198 37.0961 53.2545 37.0163 53.2979 36.9036L53.356 36.751L52.0757 33.0414H53.1167L53.8556 35.6897H53.8927L54.6386 33.0414H55.6866L54.2994 37.0374C54.2328 37.2315 54.1421 37.4005 54.0275 37.5445C53.9144 37.6901 53.7711 37.802 53.5976 37.8803C53.4241 37.9601 53.215 38 52.9703 38Z" fill="#141414"/>
<path d="M55.6268 37.7042V35.8541H55.9009C55.9799 35.804 56.0435 35.7242 56.0915 35.6146C56.141 35.505 56.1813 35.3759 56.2123 35.2272C56.2448 35.0785 56.2696 34.9181 56.2867 34.7459C56.3052 34.5722 56.3215 34.3969 56.3355 34.22L56.4284 33.0414H59.1656V35.8541H59.7186V37.7042H58.7753V36.6477H56.5934V37.7042H55.6268ZM56.8862 35.8541H58.2315V33.8115H57.2696L57.2324 34.22C57.206 34.605 57.1681 34.9322 57.1185 35.2014C57.0689 35.469 56.9915 35.6866 56.8862 35.8541Z" fill="#141414"/>
<path d="M60.2955 36.6477V33.0414H61.2854V36.6477H60.2955ZM60.7927 32.5765C60.6456 32.5765 60.5193 32.5272 60.414 32.4286C60.3102 32.3284 60.2583 32.2087 60.2583 32.0694C60.2583 31.9316 60.3102 31.8135 60.414 31.7149C60.5193 31.6147 60.6456 31.5646 60.7927 31.5646C60.9399 31.5646 61.0654 31.6147 61.1692 31.7149C61.2745 31.8135 61.3272 31.9316 61.3272 32.0694C61.3272 32.2087 61.2745 32.3284 61.1692 32.4286C61.0654 32.5272 60.9399 32.5765 60.7927 32.5765Z" fill="#141414"/>
<path d="M64.1695 36.6477V33.8256H63.5003C63.3191 33.8256 63.1812 33.8678 63.0867 33.9523C62.9922 34.0369 62.9458 34.137 62.9473 34.2529C62.9458 34.3703 62.9907 34.4696 63.0821 34.551C63.175 34.6309 63.3114 34.6708 63.4911 34.6708H64.4995V35.347H63.4911C63.1859 35.347 62.9218 35.3 62.6987 35.2061C62.4756 35.1122 62.3037 34.9815 62.1828 34.814C62.062 34.645 62.0024 34.4485 62.0039 34.2247C62.0024 33.9899 62.062 33.7841 62.1828 33.6072C62.3037 33.4288 62.4764 33.2903 62.701 33.1916C62.9272 33.0915 63.1936 33.0414 63.5003 33.0414H65.092V36.6477H64.1695ZM61.9017 36.6477L62.8939 34.7694H63.8396L62.8497 36.6477H61.9017Z" fill="#141414"/>
</svg>
