<svg width="24" height="24" viewBox="0 0 24 24" fill="none" xmlns="http://www.w3.org/2000/svg">
<path d="M19 15C20.49 13.54 22 11.79 22 9.5C22 8.04131 21.4205 6.64236 20.3891 5.61091C19.3576 4.57946 17.9587 4 16.5 4C14.74 4 13.5 4.5 12 6C10.5 4.5 9.26 4 7.5 4C6.04131 4 4.64236 4.57946 3.61091 5.61091C2.57946 6.64236 2 8.04131 2 9.5C2 11.8 3.5 13.55 5 15L12 22L19 15Z" stroke="#141414" stroke-linecap="round" stroke-linejoin="round"/>
<path d="M12 6L9.03998 8.96C8.8368 9.16171 8.67554 9.40162 8.5655 9.66593C8.45546 9.93023 8.3988 10.2137 8.3988 10.5C8.3988 10.7863 8.45546 11.0698 8.5655 11.3341C8.67554 11.5984 8.8368 11.8383 9.03998 12.04C9.85998 12.86 11.17 12.89 12.04 12.11L14.11 10.21C14.6288 9.73919 15.3044 9.47839 16.005 9.47839C16.7056 9.47839 17.3811 9.73919 17.9 10.21L20.86 12.87" stroke="#141414" stroke-linecap="round" stroke-linejoin="round"/>
<path d="M18 16L16 14" stroke="#141414" stroke-linecap="round" stroke-linejoin="round"/>
<path d="M15 19L13 17" stroke="#141414" stroke-linecap="round" stroke-linejoin="round"/>
</svg>
